<svg xmlns="http://www.w3.org/2000/svg" viewBox="0 0 398.14 479.52"><path d="M142.09,47.43c13.07-10,28.57-12.4,44.17-13.85,29.29-2.71,58.59-2.93,87.66,2.4,9.85,1.81,19.51,4.54,27.79,11.79,1.19-1.57,2.27-2.94,3.28-4.36,10.2-14.21,21.76-27.1,37.36-35.5,5.93-3.2,12.58-5.09,18.94-7.49,2.56-1,4.26-.32,5.3,2.58,8.62,24.17,10.29,48.38,1,72.81-.65,1.69-.9,4.74.07,5.65,16.41,15.44,23.7,35.13,26.67,56.76,3.65,26.65,5.88,53.47,1.06,80.14-7.58,41.91-32.73,70.05-71,87.26A175.36,175.36,0,0,1,276,319c-1.63.23-3.25.6-5.38,1,9.17,12.68,13.22,26.94,14.65,41.71,1.19,12.22.55,24.63.57,37,.06,26.81,0,53.63,0,80.84H158V416.08c-5.53.82-10.52,1.75-15.56,2.27-27,2.77-52.16-1.58-73.62-19.64-9.45-8-16.12-17.93-22.19-28.64-8.35-14.74-17.35-29.15-26.87-43.15-3.33-4.89-9.18-8-13.59-12.24C3.8,312.39,2,309.45,0,306.81c3.16-1,6.29-2.7,9.48-2.84,23.84-1.05,40,11.27,51.62,30.72,10,16.75,23.24,29.54,42.16,35.56,16.91,5.38,33.81,4.72,50.61-.69,2.26-.73,4-1.49,4.21-4.61,1.27-15.94,4.81-31.22,14.95-44.76-7.7-1.46-15-2.63-22.25-4.26-19.33-4.37-37.55-11.5-54-22.73C68,273.54,51.28,246.09,47.29,211.71a257.11,257.11,0,0,1,5.41-89.36c3.58-15.09,10.71-28.32,22-39,2.6-2.46,2.77-4.44,1.5-7.71-9.44-24.34-7.8-48.58,1-72.74,1.11-3,2.86-3,5.39-2.43,17.51,3.89,31,14.22,42.88,27C131.36,33.71,136.52,40.65,142.09,47.43Z" style="fill:#fff"/></svg>