<svg xmlns="http://www.w3.org/2000/svg" viewBox="0 0 494.92 440.97"><path d="M247.6,55c2.76-2.48,5.37-4.77,7.93-7.12,13.16-12.1,27.25-23,42.83-31.77,12-6.77,24.55-12.91,38.4-15C348.93-.81,361.05-.85,372,6.36a48.76,48.76,0,0,1,19,24.37,120,120,0,0,1,7.59,37c1,21.46-1.63,42.54-6.53,63.39-.48,2.06-.77,4.16-1.23,6.62,2.24.78,4.07,1.44,5.93,2,20.31,6.6,40.16,14.27,58.3,25.76,12,7.63,22.88,16.63,31.22,28.37,12.3,17.29,11.3,38.39-2.22,55.55-10.1,12.82-22.77,22.34-36.7,30.41-15.92,9.23-32.88,16.05-50.41,21.52-1.11.34-2.2.76-3.28,1.21a12.62,12.62,0,0,0-1.65,1.13c.91,4.48,1.78,9.17,2.81,13.82a204.1,204.1,0,0,1,4.6,56.07c-.87,15.26-4.19,30-11.43,43.63-9,16.95-26.3,25.77-45.92,23.31-18.92-2.37-35.68-10.26-51.56-20.34a248.28,248.28,0,0,1-39.13-30.93c-.83-.79-1.8-1.43-3-2.4-1.19.93-2.42,1.71-3.45,2.7a233,233,0,0,1-46.66,35c-12.53,7-25.69,12.83-40,15.11-15.29,2.45-30,1.09-42.11-10.18a43.73,43.73,0,0,1-6.23-7.09c-8.89-13-12.77-27.73-13.81-43.24a216.27,216.27,0,0,1,6.54-68.81c.46-1.75.74-3.55,1.2-5.85-3.35-1.16-6.59-2.32-9.86-3.41-18.87-6.26-37.08-14-53.78-24.91a121.49,121.49,0,0,1-27.39-23.86c-17.52-21.12-17.15-45,1.09-65.56,10.21-11.5,22.61-20,35.91-27.48,15.8-8.9,32.89-14.43,49.87-20.31,4.6-1.59,4.69-1.55,3.5-6.23a226.61,226.61,0,0,1-7.11-69.27c.87-15.32,4.15-30,12.58-43.12,7.83-12.17,19-18.83,33.46-19.75,14.72-.93,28.2,3.54,41.44,9.36C201.94,18,218,29.5,233.23,42.29,237.93,46.24,242.45,50.42,247.6,55Zm-.77,246.12c13.26-.46,26.9-1.11,40.55-1.31,4.43-.06,7.1-1.84,9.22-5.41,8.59-14.45,17.43-28.75,25.82-43.31,5.06-8.79,9.38-18,14.22-26.92a7.49,7.49,0,0,0-.06-7.93c-4.39-8-8.26-16.36-12.88-24.25-8.9-15.23-18.27-30.19-27.24-45.39-2.34-4-5.52-5.29-9.82-5.41-8.32-.23-16.64-1-24.95-1-17,.09-34,.75-50.94.78-6.51,0-10.65,2.46-14.11,8-13.9,22.35-27.51,44.85-38.84,68.66-1.18,2.47-.77,4.3.4,6.48,7.11,13.18,13.85,26.57,21.29,39.57,6.28,11,13.41,21.45,20,32.23a7.53,7.53,0,0,0,7,3.86C219.79,300.12,233.1,300.63,246.83,301.09ZM109.59,157.25c-4.62,1.36-8.77,2.43-12.81,3.81-21.22,7.25-41.57,16.17-59.2,30.44a62.39,62.39,0,0,0-14.5,17c-4.35,7.36-4.5,14.86-.36,22.32A64.17,64.17,0,0,0,37.39,249C55.5,264.3,76.63,273.9,98.77,281.6c3.25,1.13,6.59,2,10,3.08a38.83,38.83,0,0,0,1.68-3.62c6.54-19.59,13.7-38.93,22.51-57.62,1-2.22.74-4-.14-6.16-6.08-14.77-12.12-29.56-18-44.41C113,168.09,111.56,163.13,109.59,157.25ZM233.7,372.39a19.29,19.29,0,0,0-1.55-2.48c-13.09-14.66-25.86-29.61-37-45.86-2.9-4.24-6.62-5.51-11.25-5.87a479,479,0,0,1-53.3-7.68c-7.78-1.49-7-2.52-9,6a232.33,232.33,0,0,0-5.72,45c-.46,13,.38,26.05,4.88,38.42a47.6,47.6,0,0,0,7.26,12.95c5.62,7.17,13.8,8,22.24,7.4,9.42-.71,18.25-3.52,26.79-7.48C194,405,209,394.28,223.21,382.35,226.86,379.27,230.16,375.77,233.7,372.39Zm139.18-64c-3,.47-4.94.69-6.86,1.1a461.58,461.58,0,0,1-57.17,8.67c-3.54.3-5.58,2.13-7.62,4.81-9.66,12.71-19.5,25.3-29.32,37.9-2.92,3.75-6,7.4-8.82,10.89a6.78,6.78,0,0,0,.67,1.39,206.89,206.89,0,0,0,55.59,40.17c9.51,4.65,19.58,7.46,30.32,7.28,7.91-.13,14.42-3.08,18.45-10a76.09,76.09,0,0,0,11.5-44.21c-.21-10.64-.8-21.3-2-31.87C376.68,326,374.6,317.58,372.88,308.37ZM370.78,133a15.13,15.13,0,0,0,1.15-2.37c5.76-24,8.78-48.14,5.8-72.76A65.41,65.41,0,0,0,370,33.2c-5.14-9.09-12.28-14.05-25.91-12.6-11.63,1.25-22.22,5.48-32.38,11a214.8,214.8,0,0,0-36,25.1c-4.65,4-9,8.24-13.86,12.65,2.53,2.81,4.77,5,6.7,7.46Q285.26,98,301.8,119.31a8,8,0,0,0,5.75,3.33q23.2,3.24,46.35,6.91C359.46,130.43,364.94,131.77,370.78,133ZM233.13,69.57a40.48,40.48,0,0,0-3.06-3.32c-6.19-5.3-12.3-10.72-18.68-15.79a171,171,0,0,0-39.65-23.87c-9-3.81-18.3-6.14-28.16-5.67-7.05.34-12.83,3-17.12,8.81a45.48,45.48,0,0,0-7.87,18.71,143,143,0,0,0-2.28,33.76,241.09,241.09,0,0,0,6.06,44.93c1.34,5.71,1.33,5.58,6.89,4.66,18.68-3.1,37.35-6.32,56.1-8.95,4.29-.61,7-2.17,9.27-5.53,2.79-4.14,5.65-8.25,8.77-12.13C210.5,96.37,217.77,87.7,225,79,227.55,75.94,230.2,73,233.13,69.57Zm152.93,88.2a15,15,0,0,0-1.34,2.22C377.88,179.48,371,199,362,217.57a5.82,5.82,0,0,0,.28,5.65c9.13,18.2,16,37.32,23,56.39,1.49,4.06,1.54,4.15,5.77,2.77,21.48-7,42.13-15.7,60.48-29.13,6.88-5,13.29-10.71,17.95-17.92,7.51-11.62,7.29-19.16-.09-30.56-.36-.56-.79-1.07-1.18-1.61-4.25-5.89-9.72-10.49-15.49-14.78-16.91-12.59-36-20.72-55.81-27.4C393.29,159.77,389.63,158.82,386.06,157.77ZM349.2,244.93c-9.91,17.23-19.55,34-29.83,51.91A283.42,283.42,0,0,0,366,288.65C365.14,280.63,353.91,251.35,349.2,244.93ZM174.54,297.09l.5-1.25c-9.63-16.67-19.25-33.35-29-50.3-5.18,8.11-15.58,36.84-16,44.24A308.72,308.72,0,0,0,174.54,297.09Zm72.51-212.8c-9.89,11.56-20.26,22.4-29,35.74h58.19C274.45,114.57,254.41,90,247.05,84.29Zm-28.84,237a348.87,348.87,0,0,0,29.8,36c7.71-6.6,27.22-31.29,28.58-36ZM349.42,196.09c6.21-14.88,12.63-28.56,16-43.65-15.41-3.55-30.1-6.6-45.89-7.92C329.67,162,339.27,178.55,349.42,196.09Zm-219.53-43.9c2.76,13.36,12.31,38.42,16.34,42.91l29-50.65A324.23,324.23,0,0,0,129.89,152.19Z"/><path d="M203.73,219.74a43.26,43.26,0,0,1,43.67-43.33c26.08,0,43.69,21,43.57,43.88-.13,23.21-18.74,43.53-43.61,43.5C220.72,263.77,203.06,240.91,203.73,219.74Z"/></svg>