<svg xmlns="http://www.w3.org/2000/svg" viewBox="0 0 451.78 428.74"><path d="M341.15,140.5c-4.53-1.45-8.77-2.87-13-4.17-3.91-1.18-7.83-2.37-11.8-3.29-2.1-.49-3-1.36-3.3-3.59A148.63,148.63,0,0,0,286.39,60.9a92.54,92.54,0,0,0-20-20.47c-14.48-10.88-30.83-15-48.57-13.06a110.26,110.26,0,0,0-45.69,15.31C159.69,50.17,150.68,60.79,143,72.8a155.13,155.13,0,0,0-21.76,56.37c-3.12,17.41-3.49,35-2.46,52.65a203.54,203.54,0,0,0,14.86,64.7c3.89,9.64,9,18.76,13.55,28.14,1.07,2.21,2.49,2.79,5,2.58a31.07,31.07,0,0,1,32.13,21.1c4.34,12.71,1.08,27.52-11,36.23-10.91,7.84-24.61,8.37-36.53.87-10.72-6.74-16.06-19.92-13.39-32.75a30.32,30.32,0,0,1,2.26-7.22,5.85,5.85,0,0,0-.25-6.22,282.41,282.41,0,0,1-18.72-39.69,248.21,248.21,0,0,1-12.58-46.79,197.56,197.56,0,0,1-3.22-38.66c.86-33.5,7.52-65.74,23.6-95.43,13.06-24.1,31.57-43.13,56.08-55.82C190.07,2.79,210.81-1.68,232.7.57a99.29,99.29,0,0,1,44.09,15.84C301.1,32.09,317.25,54.3,328.08,80.8c5.9,14.44,9.37,29.46,11.67,44.81.63,4.17,1.08,8.36,1.56,12.55A13.36,13.36,0,0,1,341.15,140.5Z"/><path d="M66.38,202.14c1.82,7.16,3,14.19,5.45,20.71,2.23,5.81.54,8.87-3.92,12.63-16.51,13.92-29.32,30.75-37.32,51a83.6,83.6,0,0,0-6.22,29.16C24,333.56,29.28,350,39.1,365c13.49,20.6,33.25,30.84,57,34.76a146.88,146.88,0,0,0,24,1.58,135.71,135.71,0,0,0,41.48-6.66c37.41-11.92,69.45-32.54,96.61-60.74,11.2-11.62,20.1-25,27.83-39.16,1.29-2.35,1.37-4-.54-6.33-8.31-10.11-9.61-21.54-4.17-33.23,5.54-11.89,15.34-18,28.61-18.18,14.15-.22,26.16,8.15,30.59,22.14a31.71,31.71,0,0,1-12.83,36,32.45,32.45,0,0,1-10.06,4.18c-2.91.68-4.65,1.84-6,4.52a222.72,222.72,0,0,1-99.27,99.8,246.77,246.77,0,0,1-55.1,19.71A166.9,166.9,0,0,1,114.06,428c-22.88-.67-44.67-5.69-64.57-17.31C29.16,398.86,14.68,382,6.94,359.56a122,122,0,0,1-6.53-50.3,131.73,131.73,0,0,1,20.44-60.15c11.62-18.36,26.83-33.27,44-46.31A9.1,9.1,0,0,1,66.38,202.14Z"/><path d="M256.87,411.64c7.93-6.49,15.5-12.57,22.92-18.83,1.81-1.52,3.23-.85,5-.29,8.84,2.8,17.59,6,26.59,8.1,16.36,3.8,32.95,4.27,49.4.46A81.63,81.63,0,0,0,409,369.79c8.15-10.86,13.94-22.79,16.1-36.3a73.36,73.36,0,0,0-.7-27.27c-5.09-23.38-16.29-43.63-31.8-61.64-12.36-14.34-27-25.93-43.11-35.72a221.25,221.25,0,0,0-51.89-23.23,237.93,237.93,0,0,0-35.51-7.29c-11.09-1.54-22.18-1.52-33.3-1.54-3.25,0-4.95,1.11-6.56,3.95-9.75,17.27-29.56,19.16-42.52,12.31a32.09,32.09,0,0,1-13.7-41.9c10.54-21.83,41.06-24.31,54.7-4.29,2,2.88,3.83,3.57,7.18,3.51a273.93,273.93,0,0,1,40.47,2.07c30.05,3.88,58.52,12.68,85.09,27.27a213.91,213.91,0,0,1,72.17,63.89,142.15,142.15,0,0,1,22.79,50,128.24,128.24,0,0,1,3,39c-1.57,21.87-9.78,40.9-25.16,56.71-19.39,19.92-42.86,32.13-70.16,37a149.17,149.17,0,0,1-45.39,1.11A181.71,181.71,0,0,1,256.87,411.64Z"/></svg>